<?xml version="1.0" encoding="utf-8"?>
<!-- Generator: Adobe Illustrator 21.1.0, SVG Export Plug-In . SVG Version: 6.00 Build 0)  -->
<svg version="1.1" id="Layer_1" xmlns="http://www.w3.org/2000/svg" xmlns:xlink="http://www.w3.org/1999/xlink" x="0px" y="0px"
	 viewBox="0 0 30 30" style="enable-background:new 0 0 30 30;" xml:space="preserve">
<style type="text/css">
	.st0{fill:#FFFFFF;}
</style>
<path class="st0" d="M3.5,29C1.6,29,0,27.4,0,25.5v-21C0,2.6,1.6,1,3.5,1h13.7c1.9,0,3.5,1.5,3.5,3.4v0.4h-2.2v0
	c0-0.9-0.7-1.6-1.5-1.6H3.7c-0.8,0-1.5,0.7-1.5,1.6v20.5c0,0.9,0.7,1.6,1.5,1.6H17c0.8,0,1.5-0.7,1.5-1.6v0l2.2,0l0,0.3
	c0,1.9-1.6,3.5-3.5,3.5H3.5z"/>
<path class="st0" d="M23.3,22c-0.3,0-0.5-0.1-0.7-0.3c-0.2-0.2-0.3-0.4-0.3-0.7c0-0.3,0.1-0.5,0.3-0.7l4.1-4.3H11.8
	c-0.5,0-1-0.4-1-1c0-0.5,0.4-1,1-1h14.9l-4.1-4.3c-0.2-0.2-0.3-0.4-0.3-0.7c0-0.3,0.1-0.5,0.3-0.7C22.8,8.1,23,8,23.3,8
	c0.3,0,0.5,0.1,0.7,0.3l5.7,5.9c0.2,0.2,0.3,0.5,0.3,0.8c0,0.3-0.1,0.5-0.3,0.7l-5.7,5.9C23.8,21.9,23.5,22,23.3,22z"/>
</svg>
