<?xml version="1.0" encoding="utf-8"?>
<!-- Generator: Adobe Illustrator 21.1.0, SVG Export Plug-In . SVG Version: 6.00 Build 0)  -->
<svg version="1.1" id="Layer_1" xmlns="http://www.w3.org/2000/svg" xmlns:xlink="http://www.w3.org/1999/xlink" x="0px" y="0px"
	 viewBox="0 0 80.8 57.9" style="enable-background:new 0 0 80.8 57.9;" xml:space="preserve">
<style type="text/css">
	.st0{fill:#444444;}
</style>
<title>ico-claims</title>
<path class="st0" d="M79.4,13.1c-1,0-1.8,0.8-1.8,1.8v39.2H3.7V3.7h55.6c1,0,1.8-0.8,1.8-1.8c0-1-0.8-1.8-1.8-1.8H1.8
	C0.8,0,0,0.8,0,1.8V56c0,1,0.8,1.8,1.8,1.8h77.5c1,0,1.8-0.8,1.8-1.8V14.9C81.2,13.9,80.4,13.1,79.4,13.1L79.4,13.1z M79.4,13.1"/>
<rect x="11.8" y="31.1" class="st0" width="57.8" height="3.8"/>
<rect x="11.8" y="40.7" class="st0" width="47.8" height="3.8"/>
<path class="st0" d="M1.8,44.8c1,0,1.8-0.8,1.8-1.8V3.7h73.8v50.5H21.9c-1,0-1.8,0.8-1.8,1.8c0,1,0.8,1.8,1.8,1.8h57.5
	c1,0,1.8-0.8,1.8-1.8V1.8c0-1-0.8-1.8-1.8-1.8H1.8C0.8,0,0,0.8,0,1.8v41.1C0,43.9,0.8,44.8,1.8,44.8L1.8,44.8z"/>
<path class="st0" d="M1.8,44.8"/>
<path class="st0" d="M38,20c0-0.4-2.8-1-4.1-1s-0.6-1.3-0.6-1.9s2.4-1.3,2.1-1.9c-0.6-1.2-2.2,1-3.7,0.9c-1,0-1.9-0.6-2.3-1.5
	c-0.5-0.7-0.6-3-1.7-3.6c-0.6-0.3-1.2,0.8-1.6,0.7c-0.7-0.2-0.5-0.8-0.8-1.9s-1.8-0.9-1.8-0.9h-0.2c0,0-1.6-0.3-1.9,0.9
	s0,1.8-0.8,1.9c-0.4,0.1-1-1.1-1.6-0.7c-1.1,0.6-1.1,2.8-1.7,3.6c-0.6,0.8-0.7,1.3-2.3,1.5c-1.6,0.2-3-2.1-3.7-0.9
	c-0.3,0.5,2.1,1.2,2.1,1.9s0.8,1.9-0.5,1.9s-4.1,0.6-4.1,1c0,0.9,10.5,0.7,9.6,1s-4.7,1.9-5.6,1.8s1.8,0.9,2.6,0.8
	c2.2,0.6,4.4,1.4,6.5,2.3c0,0-3.1,1.2-1.4,1.2h5.4c1.7,0-1.4-1.2-1.4-1.2c2.1-0.9,4.3-1.7,6.5-2.3c0.8,0,3.4-1,2.6-0.8
	s-4.7-1.5-5.5-1.8C27.6,20.7,38,20.9,38,20z"/>
<rect x="45.8" y="19.1" class="st0" width="23.8" height="3.8"/>
</svg>
