<?xml version="1.0" encoding="utf-8"?>
<!-- Generator: Adobe Illustrator 21.1.0, SVG Export Plug-In . SVG Version: 6.00 Build 0)  -->
<svg version="1.1" id="Layer_1" xmlns="http://www.w3.org/2000/svg" xmlns:xlink="http://www.w3.org/1999/xlink" x="0px" y="0px"
	 viewBox="0 0 454 454" style="enable-background:new 0 0 454 454;" xml:space="preserve">
<style type="text/css">
	.st0{clip-path:url(#SVGID_2_);enable-background:new    ;}
	.st1{clip-path:url(#SVGID_4_);}
	.st2{clip-path:url(#SVGID_6_);}
	.st3{clip-path:url(#SVGID_8_);fill:#FFFFFE;}
	.st4{clip-path:url(#SVGID_10_);fill:#FFFFFE;}
</style>
<title>ico-profile</title>
<g>
	<defs>
		<rect id="SVGID_1_" x="1.2" y="82.4" width="452.8" height="290"/>
	</defs>
	<clipPath id="SVGID_2_">
		<use xlink:href="#SVGID_1_"  style="overflow:visible;"/>
	</clipPath>
	<g class="st0">
		<g>
			<defs>
				<rect id="SVGID_3_" x="1.2" y="82.4" width="455.2" height="290.5"/>
			</defs>
			<clipPath id="SVGID_4_">
				<use xlink:href="#SVGID_3_"  style="overflow:visible;"/>
			</clipPath>
			<g class="st1">
				<defs>
					<path id="SVGID_5_" d="M34.7,372.4c-18.5,0-33.5-14.6-33.5-32.6V115.1c0-18,15-32.6,33.5-32.6h385.7
						c18.5,0,33.5,14.6,33.5,32.6v224.7c0,18-15,32.6-33.5,32.6H34.7z M34.7,107.1c-4.7,0-8.5,3.6-8.5,8v224.7c0,4.4,3.8,8,8.5,8
						h385.7c4.7,0,8.5-3.6,8.5-8V115.1c0-4.4-3.8-8-8.5-8H34.7z"/>
				</defs>
				<clipPath id="SVGID_6_">
					<use xlink:href="#SVGID_5_"  style="overflow:visible;"/>
				</clipPath>
				<g class="st2">
					<defs>
						<rect id="SVGID_7_" x="1.2" y="82.4" width="455.2" height="290.5"/>
					</defs>
					<clipPath id="SVGID_8_">
						<use xlink:href="#SVGID_7_"  style="overflow:visible;"/>
					</clipPath>
					<rect x="-13.8" y="67.5" class="st3" width="482.7" height="319.9"/>
				</g>
			</g>
		</g>
	</g>
</g>
<g>
	<defs>
		<path id="SVGID_9_" d="M239.8,183.2h98c3.6,0,6.5-2.8,6.5-6.3c0-3.5-2.9-6.3-6.5-6.3h-98c-3.6,0-6.5,2.8-6.5,6.3
			C233.3,180.4,236.2,183.2,239.8,183.2z M363.9,183.2h6.5c3.6,0,6.5-2.8,6.5-6.3c0-3.5-2.9-6.3-6.5-6.3h-6.5
			c-3.6,0-6.5,2.8-6.5,6.3C357.4,180.4,360.3,183.2,363.9,183.2z M307.6,290.1h-6.5c-3.6,0-6.5,2.8-6.5,6.3c0,3.5,2.9,6.3,6.5,6.3
			h6.5c3.6,0,6.5-2.8,6.5-6.3C314.2,292.9,311.2,290.1,307.6,290.1z M346.8,290.1h-13.1c-3.6,0-6.5,2.8-6.5,6.3
			c0,3.5,2.9,6.3,6.5,6.3h13.1c3.6,0,6.5-2.8,6.5-6.3C353.3,292.9,350.4,290.1,346.8,290.1z M379.5,290.1h-6.5
			c-3.6,0-6.5,2.8-6.5,6.3c0,3.5,2.9,6.3,6.5,6.3h6.5c3.6,0,6.5-2.8,6.5-6.3C386,292.9,383.1,290.1,379.5,290.1z M239.8,233.2h143.7
			c3.6,0,6.5-2.8,6.5-6.3c0-3.5-2.9-6.3-6.5-6.3H239.8c-3.6,0-6.5,2.8-6.5,6.3C233.3,230.3,236.2,233.2,239.8,233.2z M383.5,258.5
			H68.4c-3.6,0-6.5,2.8-6.5,6.3c0,3.5,2.9,6.3,6.5,6.3h315.1c3.6,0,6.5-2.8,6.5-6.3C390,261.3,387.1,258.5,383.5,258.5z
			 M208.8,190.1c-0.2-0.9-0.4-1.8-0.6-2.9C207.9,188.3,208.1,189.3,208.8,190.1z M68.6,191c0.2,0.4,0.4,0.8,0.7,1.2
			c1.1,4.4,2.8,10.7,4.4,16.3l-0.2,0.1l0,0.8l0,0.9l0.9,0.8c1.6,5.3,2.9,9.6,3.1,10.4c0.4,1-1-4.3-2.4-10.3l0.5-0.2
			c0.2-0.1,0.6-0.1,0.9-0.1c0.6,0,1.2-0.1,1.5-0.2c1.4-0.1,2.4-1,3.1-1.7c0.3-0.3,0.7-0.6,1.1-0.9c0.4-0.3,0.9-0.4,1.7-0.4
			c0.3,0,0.6,0,0.9,0c0,0.2,0.1,0.3,0.2,0.5l0.2,0.4l0.2,0.2c0.3,0.3,0.9,0.8,1.8,0.8l0.5,0.1l0.4-0.4l0.4-0.1l0.3-0.4
			c0.2-0.2,0.3-0.5,0.4-0.7l0.8,0c0.9,0,1.9-0.1,2.8-0.2c0.5-0.1,0.9-0.1,1.5-0.2c0.2,0.5,0.6,1.1,1.9,1.4l0.4,0.1l0.4-0.1
			c1.2-0.5,1.6-1.3,1.6-2.1c0.5-0.1,1-0.3,1.2-0.4c0.3-0.1,0.6-0.1,0.9-0.2c-1,3.5-1,6.3,0.2,8.3l0.8,0.5l0.5,0.2l0.5,0l0.4-0.3
			l1.1-0.5l-0.2-0.6h0.4l0,0.8c-0.3,0.2-0.5,0.4-0.7,0.8l-0.5,1.1l1.1,0.6c1.7,0.9,3.7,1,5.2,1c0.4,0,0.9,0,1.5-0.1
			c0,1,0,2.2,0.7,3.2c1.1,1.4,2.9,1.8,4.6,2c3.5-0.1,6.7-0.9,9.8-1.7l2-0.5c0.4,0,0.8-0.1,1.1-0.2l-0.4-1.2l1.2,1.1
			c1.3-0.3,2.5-0.5,3.7-0.6c-0.3,0.6-0.5,1.2-0.7,1.9c-0.4,1-0.2,1.7,0.2,2.2c-0.1,0.1-0.3,0.2-0.4,0.2c-0.5,0.3-0.9,0.5-1.2,0.6
			c-1.8,0-3.4,0.4-4.9,0.7c-1,0.2-2,0.5-3,0.6l-1.1,0.1l-0.1,1.1c0,0.3,0,0.7,0.3,1l-0.1,0.5l-0.1,0.8l0.3,0.4l0.6,0.5l0.6,0.1
			l0.4,0.4l0.5-0.6l0.9-0.2c0.4,0,0.8-0.1,1.1-0.2c0.3,0,0.6-0.1,1.4-0.2c0.2-0.1,0.5-0.2,0.7-0.2c0.6-0.2,1.3-0.4,1.5-0.6
			c0.6-0.2,1.1-0.5,1.6-0.7c0.3-0.2,0.6-0.4,0.5-0.4c0.4,0,0.9,0,1.3-0.1c-0.6,0.9-1.2,1.8-1.8,2.7l-0.4,0.9l0.2,0.6l0.6,0.9
			l0.7,0.2l0.7,0.1h0.2c0.6,0,1.3-0.2,1.9-0.5l0.3-0.2c0,0,1-1.7,1.5-2.5c0.2,0.5,0.6,0.9,1,1.3c0.8,0.6,1.7,0.6,2.9,0.6l0.4,0
			l0.3-0.2c0.2-0.1,0.6-0.2,1-0.2l1.6,0.1c0.6,0,1.5-0.1,2.3-0.5l0.2,0.4l0.1,0.1l0.7,0.4l0.3,0.1c0.5,0.2,1,0.5,1.7,0.5l1-0.2
			l1-0.7l-0.1-0.8c-0.1-0.7-0.5-1.2-1-1.9c-0.2-0.4-0.5-0.7-0.7-1.1c0.1,0,0.7,0.1,0.8,0.1c0.1,0,0.2,0,0.1-0.1
			c0.6,0.8,1.5,1.3,2.8,2.1c0.8,0.4,1.5,0.5,2.3,0.7c0.5,0.1,1,0.2,2,0.5c0.3,0.1,0.6,0.1,0.9,0.1l1.1-0.2l1.1-1.3l-0.3-0.3l0.6-0.8
			l-0.4-0.7l-0.7-0.7l-0.4-0.2c-0.5-0.3-1.3-0.4-2-0.5c-0.3-0.1-0.6-0.1-1.2-0.3c-0.3,0-0.6-0.2-0.9-0.3l-0.7-0.2h-0.2
			c-1.2,0-2.2-0.7-3.3-1.5c-0.3-0.2-0.5-0.4-0.8-0.6c0.2-0.2,0.3-0.4,0.4-0.6c0.6-0.8,0.9-2.2,0.4-3.2l0.2,0c1.7,0.2,3.4,0.6,5,1
			c2.6,0.6,5.2,1.2,8.1,1.3h0.8c2.2,0,5.8,0,7.4-3.3l0.7-4c0.2-0.7,0.5-1.4,0.8-2.1c0.5-1.3,1.1-2.8,1-4.8l0.3,0.4l1.4-0.9l0.2-0.2
			c0.5-0.9,0.5-2.1,0.2-2.4c-0.1-0.8-0.4-1.5-0.8-2c2.5,1,4.4,3.6,4.8,6.4c0,2.6-0.5,4.7-1.6,7c-1.2,1.5-0.1,2.4,0.1,2.5l0.8,0.6
			l0.8-0.6c0.6-0.4,0.9-1,1.2-1.7c1.8-3,2.5-6.6,1.7-9.6c0,0,0-0.1,0-0.1l1.1-0.6l0.1-0.4c0.2,0.1,0.4,0.1,0.6,0.1
			c0.5,0.3,1.1,0.6,1.6,0.6c0.1,0,0.1,0,0.2,0c1.3,0.5,2.7,0.8,4,1l1.7,0.4l0.5,0l0.2,0c0.4,0,0.8,0.1,1.1,0.1
			c0.5,0.1,1,0.1,1.5,0.1c0.4,0,0.8,0,1.1-0.1l1.1-0.3l0-3.8l-1.6,1.3c-0.1,0-0.3,0-0.5,0c-0.2,0-0.4,0-0.6,0l-0.3-0.2l-0.4,0
			c-2.2-0.2-4.4-0.7-6.7-1.4c0.1-0.2,0.1-0.5,0.1-0.7l0-0.3l-0.2-0.3c-0.4-0.6-1.1-0.9-2.2-0.9c-0.2,0-0.4,0-0.6,0
			c-0.3,0.2-0.7,0.4-1,0.8l-2.8-1.3l-0.2,0c-0.3-0.1-0.6-0.3-0.9-0.4c-1-0.5-2-0.9-2.9-1.3c-2.2-1.1-4.5-1.8-6.7-2.5
			c-0.9-0.3-1.8-0.6-2.8-0.9l-4.1-1.1l1.2,0c14.3-0.1,28.1-0.8,42.4-0.5c-2.7,12.4-3.3,20.9,1.6,0.5c2.1,3.4,3.5,0.3,0.1-0.4
			c0.1-0.2,0.1-0.5,0.2-0.7c5.2,3,3.1,3,0.4-2.2c0-0.1,0-0.1-0.1-0.2c-0.1-0.3-0.3-0.6-0.4-0.9c0.1,0,0.2,0,0.3-0.1
			c-0.1,0-0.2,0-0.3,0c-0.2-0.4-0.4-0.8-0.6-1.3c-0.1,0.3-0.2,0.7-0.3,1c-0.1,0-0.3,0-0.4-0.1c-0.5-0.3-0.8-0.7-1.1-1.1
			c0.1,0.6,0.3,1,0.4,1.5c0.1,0,0.2,0,0.3,0c0.3-0.1,0.6-0.1,0.8-0.2l0,0.1c-0.2,0-0.5,0-0.8,0c0,0-0.1,0-0.1,0c0,0-0.1,0-0.1,0
			c0,0,0,0,0,0h0c-1.7-0.2-4.2-0.4-7.2-0.4c0.7,0.1,1.4,0.3,2.1,0.5c-4,0.1-10.1,0.1-19.3,0.1c5.9-0.3,12.2-0.6,17.3-0.6
			c-6.4-1.3-13.3-0.8-20.3,0.2l0,0c0.2-0.4,0.6-1.1,0.3-2l0-0.7l-0.2-0.2c0-0.3,0.1-0.6,0-1c0.1-0.3,0.1-0.6,0-0.9
			c0.1-0.6,0.2-1.3,0.3-1.9c0.3,0.1,0.5,0.2,0.9,0.2l0.8,0l0.2-0.2c0.2,0.3,0.6,0.6,1,0.7l0.7,0.1l1.1-0.3l0.3-0.2
			c0.2-0.1,0.5-0.3,0.6-0.7c3,0.6,5.6,1.3,8,2.3c0.2,0.1,0.5,0.2,0.7,0.3c0.6,0.3,1.3,0.6,2.4,0.6c0,0,3.3-0.2,3.3-0.2l-2.4-2.1
			c-1-0.8-2.1-1.3-3.5-1.8c1-0.6,1.8-1.5,2.5-2.4c-0.1,0.3-0.3,0.4-0.4,0.5l1.1-0.7l-0.2-1.4l-0.3-0.3l-0.8-0.6h-0.6
			c-0.4,0-0.7,0.1-1.5,0.3c-1.4,0.2-2.3,1.1-3,1.8c-0.6,0.5-1.1,1-1,1.1c0,0-5.2-1.2-7.1-1.6l-0.8-0.1c-0.5-0.1-0.9-0.1-1.4-0.2
			c0-0.1,0-0.3,0-0.4l0-0.5c0.2-0.3,0.2-0.6,0.3-0.9l0.5-0.2c0.2-0.1,0.5-0.1,0.9-0.1c0.5,0,1,0.1,1.5,0.1l0.2-0.1
			c0.7,0.3,1.3,0.4,2.6,0.6l0.8,0.2l0.5-0.4l0.4,0.1l0.4-0.2c1.9-1,1.6-2.8,1.4-3.8c0-0.2-0.1-0.3-0.1-0.5c1-0.9,2.1-2,3.1-3.3
			l0.2-0.3l0-0.4c0.1-0.9-0.4-1.8-1.3-2.2c-0.3-0.1-0.6-0.2-0.9-0.2l-1,0.2l-0.4,0.3c-0.7,0.5-0.9,1.2-0.7,2
			c-0.1,0.1-0.2,0.2-0.4,0.3l-0.1-0.1l-0.2-0.2c-0.1-0.2-0.3-0.5-0.3-0.5c0,0,0,0,0,0c-0.6-1.6-1.7-2.7-2.6-3.7
			c-0.4-0.4-0.7-0.8-1.1-1.2c-2.8-3.5-7.2-5.1-10.2-6.1c-1-0.3-2.1-0.5-3.2-0.5c-2.6,0-5,0.9-7.2,1.6l-0.5,0.2
			c-0.2-0.1-0.3-0.3-0.4-0.6c-0.1-1.3,0.1-2.7,0.9-4.4c0-0.4,0.3-0.8,0.5-1.3c0.2-0.5,0.5-0.9,0.8-2c0.8-2.3,1.6-4.7,1.7-7.3
			c0.1-1.8-1-3.5-3.5-4.8c-0.4-0.1-0.9-0.2-1.3-0.2c-1.1,0-1.9,0.4-2.8,1.3c-0.4,0.9-1.6,1.5-2.4,2l-0.6,0.3l-0.1,0.7l0,0.9l0.4,0.4
			l0.6,0.3h0.6l0.3,0.2l0.4,0.1c0.4,0.1,0.9,0.1,1.3,0.1c0.2,0,0.3,0,0.5,0c-0.2,1-1,2-1.9,3.3c-0.8,1.1-1.6,2.3-2.3,3.5h-2.4
			l-0.2-0.3l-0.2,0.3H149l-0.2-0.3l-0.2,0.3h-6.5l-0.2-0.3l-0.2,0.3h-5.1c-0.2-0.1-0.5-0.3-0.8-0.4c-0.6-0.4-1.4-0.9-2-0.9
			c-0.1,0-0.1,0-0.1,0c-0.5-0.2-1.1-0.3-1.7-0.3c-1.2,0-2.2,0.5-3.1,0.9c-0.7,0.3-1.4,0.6-2.3,0.6c0,0-0.2,0-0.2,0
			c-0.1-0.4-0.2-0.8-0.3-1.2l-0.1-0.5l-0.1-0.2c0-0.3-0.1-0.7-0.2-1c-0.1-0.2-0.1-0.3-0.1-0.4c0.2,0,0.5,0,0.7,0
			c1.2,0,3.2,0,3.9-1.8c1-2.2-0.8-3.4-1.6-3.9c-0.4-0.2-0.8-0.5-0.7-0.7v-0.5l-0.4-0.4c-0.3-0.3-0.6-0.5-0.9-0.7
			c-0.2-0.2-0.4-0.3-0.5-0.4c0.3-1.3,0.3-2.4,0-3.4c-0.2-0.9-0.8-1.5-2.1-1.5c-0.1,0-0.2,0-0.3,0l-0.4,0.1l-1.7,2.4
			c-0.5-0.4-1.1-0.8-1.7-1.2l-0.6-0.3l-0.3,0c-0.4-0.2-0.9-0.4-1.5-0.4l-0.6,0.1l-0.8,0.3l-0.2,0.5c-0.2,0.3-0.3,0.9,0,1.6
			c0.2,2,1.3,3.5,2.3,4.5c-0.5,1.3-0.6,2.7-0.6,4c0,0.6-0.1,1.1,0,1.4c-2.1,5.2-5.5,9.7-9.6,12.9l-1,1.1c-2.4,2.6-5,5.2-5.4,8.9
			l0,0.3c-1-0.4-1.8-0.9-2.5-1.4c-0.9-0.6-1.9-1-2.9-1.3c-1.6-0.5-2.6-0.9-3.2-2c-0.2-0.3,0.2-0.8,0.4-1.2c2-1.8,1.9-4.9,0.8-7.1
			l-0.7-0.6l-0.6-0.2l-0.3-0.2l-0.4,0.5l-0.9,0.3l0,0.9c0,0.8-0.4,1.6-0.7,2.5c-0.6,1.4-1.3,3.1-0.7,5.1c0,0,0,0.1,0,0.1
			c-0.5-0.1-1-0.2-1.5-0.2l-0.7,0l-0.3,0.1c-0.6,0.3-1.4,0.3-2.3,0.3c-1.4,0-3.1,0.1-4.5,1.3c-0.3,0.1-0.7,0.3-0.9,0.7l-0.4,0.7
			l0.4,1.6h1.1c0.4,0,0.8,0.1,1.2,0.1c0.5,0.1,1,0.1,2.2,0.2c1.4,0,2.4-0.7,3.2-1.3c0.2-0.1,0.4-0.3,0.4-0.3l0.4,0.1l0.4-0.4l0.8,0
			c1.7,0.2,3.2,0.8,4.7,1.6c-0.2,0.1-0.5,0.2-0.8,0.4c-1.3,0.9-2.6,2.1-2.9,3.3c-1,1.5-0.2,2.9,0.5,3.8c0.1,0.6,0.2,1.7,1.3,2.2
			l0.9,0.4l0.7-0.7c1.4-1.4,1.1-3.1,0.8-4.3c-0.1-0.6-0.2-1.1-0.2-1.3c0.1-0.4,0.4-0.9,2.2-1.4c0.3-0.1,0.6-0.2,0.9-0.2
			c0.9,0,1.9,0.6,2.9,1.3c0.3,0.2,0.5,0.3,0.8,0.5c0,0.4,0,0.8,0,1.1c0,1,0.1,2-0.1,3c-0.3,0-0.6,0.1-1,0.1H100
			c-2.6,0.2-4.8,1.1-6.9,2c-1,0.4-2,0.9-3.1,1.2c-0.6,0.2-1.3,0.3-2,0.4c-0.9,0.1-1.8,0.3-2.7,0.6l-3.9,1.4l4,1.1
			c0.4,0.1,0.8,0.2,1.3,0.2c0.5,0,1-0.1,1.6-0.1c0.3,0,0.7-0.1,1.2-0.1c2-0.3,3.8-1,5.5-1.8c0.6-0.3,1.2-0.5,1.8-0.8
			c-0.1,0.5,0,1,0.2,1.4c0.1,0.1,0.1,0.2,0.2,0.2c-0.4,0.6-1,0.8-2.1,1c-0.9,0.2-2.1,0.5-3.2,1.5c-0.3,0.2-0.8,0.5-1,1.2
			c-2.3,0.2-4.4,0.3-6.7,0.3c-0.5,0-1.1,0-1.7,0.1c-0.5,0-1,0.1-1.4,0.1c-0.4,0-0.8,0-1.7-0.2c-0.6,0.1-1.1,0.1-1.7,0.1
			c-0.6,0-1.3,0-2,0.1c0.1-0.2,0.2-0.4,0.2-0.6c0.1-0.3,0.2-1.1-0.3-1.7c-0.5-1.2-1.8-2.1-3-2.4L72,185c-1.5,0-2.8,0.5-3.6,1.3
			c-0.2,0.2-0.1,1,0.1,2.3C68.3,189.4,68.4,190.3,68.6,191z M210.2,191.8L210.2,191.8c-0.1,0.1-0.1,0-0.2,0
			C210,191.8,210.1,191.8,210.2,191.8z M115.9,218.6l-1.2,0.3l0.1,0.5c-0.3-0.1-0.4-0.4-0.4-1.5c0-0.6-0.1-1.3-0.2-1.4
			c0.1-0.8-0.1-1.5-0.2-2.1c0-0.1,0-0.1,0-0.2c0.1,0,0.1,0,0.2,0c0.9,0.2,1.8,0.2,2.7,0.2c0.2,0,0.3,0,0.5,0L115.9,218.6z
			 M122,206.6c-0.2-0.6-0.3-1.3-0.4-2c0.1,0.2,0.1,0.4,0.2,0.5c0.1,0.4,0.2,1,0.6,1.5C122.3,206.6,122.2,206.6,122,206.6z
			 M125.1,214.8l0.2,0l0.3,1.9L125.1,214.8z M134,214.4L134,214.4l0,0.1C134,214.5,134,214.4,134,214.4z M137.7,221.3
			c0,0-0.1,0-0.1,0c0.1,0,0.1-0.1,0.2-0.1C137.7,221.3,137.7,221.3,137.7,221.3z M138.8,214.8l-0.5,0l-0.1-0.8l0.6-0.1L138.8,214.8z
			 M142,196.5c-0.2-0.3-0.4-0.6-0.7-1c-0.5-0.4-0.5-1.7,0-2.8c0.2-0.5,0.2-1,0.2-1.5c0.2,0.1,0.4,0.1,0.7,0.1c0.5,0,1-0.2,1.4-0.4
			c0,0.5,0.1,1,0.2,1.5c0.2,1.6,0.3,2.6-0.3,3.3l-0.4,0.5v0.1c-0.1,0.1-0.5,0.7-0.5,0.8C142.3,196.9,142.1,196.7,142,196.5z
			 M143.2,227.2c-0.3,0-0.7,0-1,0.1c0.1-0.4,0.3-0.9,0.4-1.2c0.2,0.2,0.4,0.4,0.6,0.6c0.2,0.1,0.4,0.3,0.6,0.4L143.2,227.2z
			 M145.6,214.2c0.5-0.4,0.7-1,0.7-1.7c0-0.2,0-0.4-0.1-0.7c0.3,0,0.7,0.1,1,0.1l-1.5,2.4L145.6,214.2z M147,221.8
			c0-0.1-0.1-0.3-0.2-0.4c0.6-0.4,0.8-0.5,0.9-0.6l-0.1,0.3c0.1,0.3,0.2,0.4,0.2,0.4C147.8,221.7,147.6,221.8,147,221.8z
			 M151.4,213.2l-0.3-0.7c0.1,0,0.2,0,0.3,0L151.4,213.2z M151.9,214.3l-0.3-0.9l0.5,0.1L151.9,214.3z M157.6,215.1L157,215
			l-0.5,0.7c-0.2,0.3-0.4,0.4-0.7,0.5l0.4-1.9h0.9l0-0.2l0,0.4l0.6,0.2L157.6,215.1z M161.8,215.8l0.1-0.5l0.2,0L161.8,215.8z
			 M170.9,214.9c-0.2,0.6-0.3,1.1-0.4,1.7c-0.2,0.4-0.2,0.8-0.1,1L170,218v0.6c0,0.1-0.2,0.2-0.2,0.2c-0.4,0.1-0.7,0.1-1.1,0.2
			l0.3-1.1l-1.4-0.1l-1.3-3.2c0.5,0,1.1,0.1,1.6,0.1c1.2,0,2.2-0.1,3.2-0.3C171,214.6,171,214.8,170.9,214.9z M166.2,199.6
			c0.8,0.4,1.8,0.7,2.7,0.9c2.1,0.5,3.4,0.9,3.9,2.3c0.3,0.9,0.6,1.8,1.1,2.6c-0.5-0.3-1.1-0.6-1.8-0.8c-0.5-0.1-1-0.2-1.5-0.2
			c-1.5,0-2.9,0.5-3.6,1.4c-0.6,0.5-0.9,1-1.1,1.5c-0.4-0.8-0.6-1.9-0.7-3c-0.2-1.4-0.3-2.8-0.9-3.9c-0.2-0.5-0.4-0.9-0.7-1.4
			c0.4,0.1,0.7,0.2,1.1,0.3C165.3,199.4,165.9,199.6,166.2,199.6z M164.4,187.3c-0.2-0.1-0.5-0.2-0.7-0.4c-0.4-0.2-0.7-0.3-1.2-0.7
			c-0.3-0.1-0.6-0.2-0.9-0.3c0.3-0.1,0.6-0.3,1-0.4c1.1-0.6,2.2-0.9,3.3-1.3l0.5-0.2C165.8,185.2,165.2,186.3,164.4,187.3z
			 M175.9,176.9l0.2-0.3c0.1,0.1,0.2,0.2,0.3,0.3c-0.2,0.1-0.4,0.2-0.6,0.3C175.8,177.1,175.9,177,175.9,176.9z M172,183.1
			L172,183.1c0.6-0.2,1.2-0.2,1.9-0.2c0.7,0,1.4,0.1,2.1,0.1c0.5,0,1,0.1,1.5,0.1c0,1.2-0.1,2.5-0.2,3.8l-0.1,1.2
			c-0.3,1-1.2,1.3-3.3,1.6c-0.6,0.1-1.2,0.2-2.4,0.6c-0.4,0.1-1.6,0.5-1.9,1.6l-1.9,0l0.3-0.8l-0.2-0.4l0.3-0.4l0.1-0.2
			c0.1-0.4,0.3-0.7,0.5-1.1c0.3-0.4,0.5-0.9,0.6-1.3c0.6-1.2,1.4-2.4,2.1-3.6L172,183.1z M152,172.4c0,0-0.1,0-0.1,0l0,0H152z
			 M156,183.3c2-0.9,3.3-3.4,3.3-6.3l0-6.3c1.1,1.3,2.4,2.3,3.8,2.7c1.1,0.9,2.7,2.1,4.7,2.1c0.5,0,0.9-0.1,1.4-0.2v0.1
			c0.1,0.3,0.3,0.6,0.3,0.6c0,0,0,0,0,0c0.2,0.5,0,1-0.3,1.7c-0.2,0.5-0.3,0.9-0.4,1.3l-0.2,0.6c-0.4,0.1-0.7,0.2-1.1,0.3
			c-0.3,0.1-0.5,0.2-1.2,0.3c-4.8,1.8-10.1,3.7-14.6,7.1c-0.1-0.4-0.3-0.8-0.6-1.1L156,183.3z M154.1,190.2c0.4-0.5,1-0.7,2.4-0.7
			l0.7,0l0.1-0.1c0.5,0.2,1.1,0.4,1.6,0.5c-1.2,0.2-2.6,0.4-3.5,1.6l-0.5,0.7c-1.2,0.2-2.5,0.6-3.6,1.3c-0.4,0.2-0.7,0.4-1,0.6
			C151.3,192.7,152.5,191.4,154.1,190.2z M152.5,202.6l0.5,0.2h0.4c1.1,0,1.6-0.6,1.7-0.9l0.6-0.4l0-0.2c0,0,0.1,0.2,0.2,0.6
			c0,0.4-0.4,0.9-0.8,1c-0.3,0.1-0.6,0.2-1.1,0.2c-0.7,0-1.4-0.2-1.7-0.3c-0.3-0.3-0.6-0.8-1-1.8c0-0.2-0.1-0.3-0.1-0.4
			c0.1-0.1,0.2-0.1,0.3-0.2l0,0.3C151.5,201.1,151.5,202.1,152.5,202.6z M147.8,181.1l0.3-0.1c0.1,0,0.3-0.1,0.5-0.2
			c0,0,0.1,0,0.1,0l-0.9,0.5V181.1z M147.1,188.7C147.1,188.7,147.1,188.8,147.1,188.7C147.1,188.8,147.1,188.8,147.1,188.7
			L147.1,188.7L147.1,188.7z M147.7,202.9c0.9,1.7,2.6,3.1,4.8,3.7c0.5,0.1,0.9,0.1,1.4,0.1c1.7,0,3.1-0.5,4.3-1.6
			c0.1,0.6,0.3,1.2,0.6,1.8l0.5,0.8l0.9-0.1c1.2-0.2,1.5-1.3,1.8-2c0.1-0.2,0.1-0.3,0.2-0.5c0.1,0.5,0.1,1.1,0,1.6
			c-0.2,0.7-1.3,1.2-2.5,1.7c-0.5,0.4-1.2,1-1.5,1.8c-0.3-0.1-0.6-0.1-0.9-0.1c-3.1-0.5-6.1-1.1-9.2-1.4c-0.7-0.1-1.5-0.2-2.2-0.2
			c-0.4,0-0.7-0.1-1.1-0.1C145.2,206.3,146.3,204.5,147.7,202.9z M144.3,160.9c0,0,0-0.1,0.1-0.1L144.3,160.9L144.3,160.9
			C144.3,160.9,144.3,160.9,144.3,160.9z M139.8,162.5L139.8,162.5v0.1V162.5z M139.8,172.4h3.1l-0.1,0.1c-0.8,0.7-1.2,1.7-1,2.7
			c0,0.1,0,0.2,0,0.2c-0.5-0.2-0.9-0.3-1.1-0.5l-0.4-0.4l-0.4,0V172.4z M139.8,182.3c0.4,0.2,0.9,0.4,1.6,0.4c0.3,0,1.9-0.1,1.9-0.1
			l0.4,0l0.4-0.2c0.1-0.1,0.2-0.1,0.3-0.2v1.1l-1.6,1l-0.5-0.1l-0.4,0.3l-2.2-1.3V182.3z M136.4,181.2L136.4,181.2l-0.1,0
			L136.4,181.2z M136.2,188.2l1.1,0.7c-0.4,0.8-0.7,1.6-0.7,2.4c-0.3-0.4-1.1-1.2-1.1-1.2C135.9,189.5,136.1,188.8,136.2,188.2z
			 M136.9,204c0.2-0.2,0.4-0.5,0.5-0.7c1.2,1,2.2,2.4,2.8,3.8c0,0.3,0,0.6,0.1,0.9c-4.1,0.1-8.6,0.4-13,1.3L127,209
			c-0.6-0.9-1.4-1.5-2.3-1.8l0.2-0.3c0.5-0.7,0.7-1.5,0.9-2.2c0.1-0.3,0.1-0.5,0.3-1.3c0-0.5-0.2-1-0.3-1.5c-0.2-0.9-0.4-1.4,0-2.1
			c0.2-0.4,0.5-0.6,1-0.9c-0.8,1-1.1,2.3-0.8,3.6c0.4,1.8,1.8,3.2,3.8,3.8c0.6,0.1,1.1,0.2,1.7,0.2
			C133.8,206.4,135.7,205.5,136.9,204z M132.9,201.4c0.4-0.3,0.7-0.7,0.8-1.1l0.2,0c0,0.7-0.5,1.5-1,1.9c-0.4,0.2-0.9,0.4-1.4,0.4
			c-0.5,0-0.9-0.1-1-0.2c-0.3-0.3-0.5-1-0.1-1.2c0.3,0.2,0.8,0.5,1.5,0.5l0.7-0.1L132.9,201.4z M120.3,179l0.3-1
			c0.1-0.5,0.3-1.1,0.1-1.2c0.4-1,0.4-2,0.4-3.3c0.1-0.8,0.5-1.7,0.8-2.6l1.3-3.3c0,0,0.2-0.8,0.3-0.9c0.1,0,0.1,0.1,0.2,0.1
			c0.7,0.3,1.1,0.5,1.3,0.7l0,9.5c0,2.9,1.3,5.4,3.1,6.2l4.2,2.6c0,0.3-0.1,0.6-0.2,0.9c0,0.2-0.1,0.3-0.1,0.5
			c-3.9-2.6-8-5-12.1-6.9C120,179.7,120.2,179.2,120.3,179z M117.7,186.9c0-0.4,0.4-1.6,0.9-3.1c1,0.5,2.4,1.2,3.5,1.8
			c1.2,0.4,2.3,1.1,3.4,1.7l1,0.6c0.7,0.4,1.3,0.8,1.9,1.2c-0.6-0.1-1.1-0.1-1.5-0.1c-0.9,0-1.9,0.1-2.8,0.1
			c-0.8,0.1-1.6,0.1-3.1,0.2c-0.6,0.1-1.2,0.1-1.8,0.1c-0.8,0-1.4-0.1-1.5-0.1h0C117.4,189.1,117.5,188,117.7,186.9z M112.1,201
			l2.2-0.9c2-0.8,4-1.6,6-2c-0.2,0.3-0.4,0.6-0.5,0.9c-1.5,2-1.7,5.1-1.2,7.5c-0.8-1-2-2-3.6-2h-0.7c-0.9,0-1.8,0.3-2.6,0.7
			c0-0.6,0-1.1,0-1.7C111.6,202.1,111.6,201.4,112.1,201z M110.4,214.3c-0.8-0.3-1.6-0.4-2.4-0.4c-0.1,0-0.3,0-0.4,0v-1.1l0.6-1.6
			h-0.8l0.2-0.7l-1.5,0.6l-1.8-2l0,3.9l-0.5,0.6l-0.2-0.4c-0.7-1.6-0.5-3.7,0.5-6.5c0.3-2,1.9-3,3.8-3.9c-0.4,1.2-0.7,2.5-0.6,4.1
			l-0.1,1l1,1.4l1.1-0.6c0,0,0,0,0.1,0c-0.2,1.4,0.2,2.8,0.6,4.1c0.2,0.6,0.3,1.1,0.4,1.3C110.4,214.2,110.4,214.2,110.4,214.3z
			 M109.6,187c0.5-0.9,0.9-1.9,1.1-2.9c0.1-0.4,0.4-0.8,0.8-1.1c-0.1,1.6-0.4,3.1-0.8,4.5c-0.1,0.4-0.2,0.7-0.3,1.1
			c-0.3,1-0.7,2.2-0.4,3.4c-1,0-1.7,0-1.9,0c-0.7,0-1.3,0-2,0C107.8,190.5,108.8,188.6,109.6,187z M106.4,196l0,0.5l0.8,0.4l0.6,0.1
			h0.3c0.7,0,1.4,0.4,2.2,0.8c0.1,0.1,0.2,0.1,0.3,0.2c-0.9,0.4-1.7,0.6-2.5,0.7c-0.2-0.2-0.4-0.4-0.5-0.4c0,0,0,0,0,0
			c-0.8-0.9-2-1-3.5-1c-0.1,0-0.1,0-0.2,0l-0.5,1.3h0l-0.3-1.3l-0.7-0.1l-0.9,0.1l-1.3,0.9l0.5,1c0.6,1.1,1.8,1.7,2.6,2.1
			c0,0,0.1,0,0.1,0.1c-1.1,0.6-2.1,1.2-3.5,1.2c-0.3,0-0.6,0.1-0.9,0.1c-1.9,0-3.6-0.6-4.4-1.4c-0.9-2.1-3-3.4-5.6-3.4l-0.6,0
			l-1.5,0.9l0.3,1.6l0.5,0.3c0.4,0.2,0.8,0.6,1.2,1c0.5,0.5,1,1,1.2,1.1c0.7,0.8,1.7,0.8,2.7,1.1c0.3,0.2,0.7,0.4,1.1,0.6
			c-1.7,0.2-3.7,0.3-5.8,0.3c-1,0-2,0-3-0.1c-0.6,0-1.1-0.1-1.6-0.2c-0.7-0.1-1.4-0.2-2.4-0.2c0,0-2.8,0.1-2.8,0.1l1,1.2
			c-0.1,0-0.2,0.1-0.2,0.1c-0.9,0-1.6,0.3-2.1,0.5l-0.4,0.2l-0.2,0.2c-0.3,0.3-1.2,1.2-2,1.7c-1.4-6.3-2.3-12.4-1-12.3L106.4,196z
			 M71,189.1c0.1-0.2,0.4-0.4,1-0.5c0,0,0.2,0.1,0.1,0.4c-0.1,0.2-0.3,0.4-0.4,0.6l-0.2,0.4l0.1,0.4l1.3,1.3h0.4c0,0.1,0,0.2,0,0.3
			c-1-0.2-2-0.7-2.4-1.8C70.9,190,70.9,189.3,71,189.1z M210.4,190C210.4,190,210.4,190,210.4,190c-0.2-0.5-0.4-1.1-0.6-1.7
			C209.9,188.9,209.8,189.6,210.4,190z M210.9,188.9c-0.1,0.4-0.2,0.8-0.3,1.1c0.3,0.1,0.6,0,0.7-0.2
			C211.5,189.3,211,189.2,210.9,188.9z M210.8,188.8c0,0,0,0.1,0.1,0.1c0.1-0.6,0.3-1.1,0.4-1.7
			C211.1,187.8,210.6,188.2,210.8,188.8z M210.4,190c0,0.1,0.1,0.2,0.1,0.2c0-0.1,0-0.1,0.1-0.2C210.5,190,210.5,190,210.4,190z
			 M137.8,138.6l-0.2,3.5h-2c-1.4,0-2.5,1.1-2.5,2.4c0,1.3,1.1,2.4,2.5,2.4h13.5c1.4,0,2.5-1.1,2.5-2.4c0-1.3-1.1-2.4-2.5-2.4h-2.4
			l-0.2-3.5l6.2-1l-5.2-3.5l3.1-5.3l-6.1,1.7l-2.4-5.7l-2.4,5.7l-6.1-1.7l3.1,5.3l-5.2,3.5L137.8,138.6z M142.1,140.6l1.7,1.5h-3.4
			L142.1,140.6z M261.1,293H68.4c-3.6,0-6.5,2.8-6.5,6.3c0,3.5,2.9,6.3,6.5,6.3h192.7c3.6,0,6.5-2.8,6.5-6.3
			C267.6,295.9,264.7,293,261.1,293z"/>
	</defs>
	<clipPath id="SVGID_10_">
		<use xlink:href="#SVGID_9_"  style="overflow:visible;"/>
	</clipPath>
	<rect x="46.9" y="109.9" class="st4" width="358.1" height="210.8"/>
</g>
</svg>
