<?xml version="1.0" encoding="utf-8"?>
<!-- Generator: Adobe Illustrator 21.1.0, SVG Export Plug-In . SVG Version: 6.00 Build 0)  -->
<svg version="1.1" id="Layer_1" xmlns="http://www.w3.org/2000/svg" xmlns:xlink="http://www.w3.org/1999/xlink" x="0px" y="0px"
	 viewBox="0 0 30 30" style="enable-background:new 0 0 30 30;" xml:space="preserve">
<style type="text/css">
	.st0{fill:#FFFFFF;}
</style>
<path class="st0" d="M22.5,27.4"/>
<path class="st0" d="M1.6,12.5c-0.3,0-0.6-0.1-0.8-0.4c-0.2-0.2-0.2-0.5-0.2-0.7c0-0.3,0.2-0.5,0.4-0.7L14.5,0.3
	c0.2-0.1,0.4-0.2,0.6-0.2s0.4,0.1,0.6,0.2l13.5,10.5c0.2,0.2,0.4,0.4,0.4,0.7c0,0.3,0,0.5-0.2,0.7c-0.2,0.3-0.5,0.4-0.8,0.4
	c-0.2,0-0.4-0.1-0.6-0.2l-12.9-10l-12.9,10C2,12.5,1.8,12.5,1.6,12.5L1.6,12.5z"/>
<path class="st0" d="M3.8,29.9c-0.6,0-1-0.5-1-1V15.6c0-0.3,0.2-0.6,0.4-0.8l11.3-9c0.2-0.1,0.4-0.2,0.6-0.2s0.4,0.1,0.6,0.2l11.3,9
	c0.2,0.2,0.4,0.5,0.4,0.8v13.3c0,0.6-0.5,1-1,1H3.8z M25.4,27.9V16.1L15.1,7.9L4.8,16.1v11.8h6.4v-7.4c0-0.6,0.5-1,1-1h5.7
	c0.6,0,1,0.5,1,1v7.4H25.4z M16.9,27.9v-6.4h-3.7v6.4H16.9z"/>
</svg>
