<?xml version="1.0" encoding="utf-8"?>
<!-- Generator: Adobe Illustrator 21.1.0, SVG Export Plug-In . SVG Version: 6.00 Build 0)  -->
<svg version="1.1" id="Layer_1" xmlns="http://www.w3.org/2000/svg" xmlns:xlink="http://www.w3.org/1999/xlink" x="0px" y="0px"
	 viewBox="0 0 30 30" style="enable-background:new 0 0 30 30;" xml:space="preserve">
<style type="text/css">
	.st0{fill:#FFFFFF;}
</style>
<g>
	<g>
		<path class="st0" d="M15,0.1C6.8,0.1,0.1,6.8,0.1,15S6.8,29.9,15,29.9S29.9,23.1,29.9,15S23.2,0.1,15,0.1z M15,27.8
			C7.9,27.8,2.2,22.1,2.2,15S7.9,2.2,15,2.2S27.8,7.9,27.8,15S22,27.8,15,27.8z"/>
	</g>
</g>
<g>
	<path class="st0" d="M17.8,24.2c-0.9-0.4-1.4-1.3-1.4-2.2v-1.9c0,0,0.1-0.1,0.3-0.3c0.1-0.2,0.8-0.6,1.4-1.7l0.2-0.5
		c0,0,0.8-0.7,1-1.2c0.2-0.4,0.2-1.3,0-1.6c-0.2-0.4-0.7-0.9-0.7-0.9l0-3.3c0-0.1,0.1-0.9-0.5-1.6c-0.5-0.6-1.5-0.9-2.9-0.9
		c-1.4,0-2.4,0.3-2.9,0.9c-0.6,0.7-0.5,1.5-0.5,1.5l0,0.1l0,3.2c0,0-0.7,0.6-0.9,0.9c-0.1,0.3-0.2,1.2,0,1.6
		c0.2,0.4,0.9,1.2,0.9,1.2l0.1,0.4c0.3,0.9,1.1,1.6,1.2,1.8c0.1,0.2,0.2,0.3,0.2,0.3l0,1.9c0,0.9-0.5,1.8-1.3,2.2L8,26.3L6.3,25
		l4.8-2.7c0.1-0.1,0.2-0.2,0.2-0.4l0-1.3c-0.4-0.5-1.2-1.1-1.6-2.5c-0.4-0.4-1-1-1-1.6v-1.6c0-0.5,0.4-0.9,0.7-1.3v-2.8
		c0-0.2-0.1-1.8,1-3.1c1-1.1,2.5-1.6,4.5-1.6c2,0,3.5,0.6,4.5,1.6c1.1,1.3,1,2.8,1,3.1l0,2.7c0.3,0.4,0.6,0.8,0.6,1.3v1.6
		c0,0.8-0.7,1.3-1.2,1.9c-0.5,1.4-1.5,2.3-1.6,2.4v1.1c0,0.2,0.1,0.3,0.2,0.4l5.2,2.8L22,26.4L17.8,24.2z"/>
</g>
</svg>
