<?xml version="1.0" encoding="utf-8"?>
<!-- Generator: Adobe Illustrator 21.1.0, SVG Export Plug-In . SVG Version: 6.00 Build 0)  -->
<svg version="1.1" id="Layer_1" xmlns="http://www.w3.org/2000/svg" xmlns:xlink="http://www.w3.org/1999/xlink" x="0px" y="0px"
	 viewBox="0 0 336 436" style="enable-background:new 0 0 336 436;" xml:space="preserve">
<style type="text/css">
	.st0{fill:#444444;}
</style>
<g>
	<path class="st0" d="M87.2,280.4c7.3,0,14.2-2.8,19.3-8c3.5-3.5,5.8-7.8,7-12.3l14.3,14.3c5.2,5.2,12,8,19.3,8
		c7.3,0,14.2-2.8,19.3-8c5.2-5.2,8-12,8-19.3c0-7.3-2.8-14.2-8-19.3l-12.3-12.3c4.6-1.2,8.9-3.5,12.3-7c5.2-5.2,8-12,8-19.3
		c0-7.3-2.8-14.2-8-19.3l-17.2-17.2c4.6-1.2,8.9-3.5,12.3-7c5.2-5.2,8-12,8-19.3s-2.8-14.2-8-19.3l-48.4-48.4V9.8
		c0-3.8-3.1-6.8-6.8-6.8c-3.8,0-6.8,3.1-6.8,6.8v46.3c-9.9-3.9-21.9-1.9-29.6,5.8c-8.5,8.5-10.1,21.1-5.1,31.3
		c-5.3,0.9-10.3,3.4-14.3,7.3c-8.4,8.4-10.1,21-5.2,31.1c-5.3,1-10.2,3.6-14.1,7.5c-8.4,8.4-10.1,21-5.2,31.1
		c-5.3,1-10.2,3.6-14.1,7.5c-5.2,5.2-8,12-8,19.3c0,7.3,2.8,14.2,8,19.3l55.9,55.9C73.1,277.5,79.9,280.4,87.2,280.4L87.2,280.4z
		 M79.6,71.6c2.6-2.6,6-4,9.7-4c3.6,0,7.1,1.4,9.7,4l2.7,2.7l50.4,50.4c2.6,2.6,4,6,4,9.7c0,3.6-1.4,7.1-4,9.7
		c-5.2,5.2-14.2,5.2-19.3,0L79.6,90.9C74.3,85.6,74.3,76.9,79.6,71.6L79.6,71.6z M60.3,110.2c2.6-2.6,6-4,9.7-4c3.6,0,7.1,1.4,9.7,4
		l77.2,77.2c2.6,2.6,4,6,4,9.7c0,3.7-1.4,7.1-4,9.7c-5.2,5.2-14.2,5.2-19.3,0l-30-30l-37.5-37.5l0,0l-9.6-9.6
		C54.9,124.2,54.9,115.6,60.3,110.2L60.3,110.2z M41,148.8c2.6-2.6,6-4,9.7-4c3.6,0,7.1,1.4,9.6,4l37.6,37.6l59,59
		c2.6,2.6,4,6,4,9.7c0,3.6-1.4,7.1-4,9.7c-5.2,5.2-14.2,5.2-19.3,0l-31-30.9c0,0,0,0,0,0L41,168.2C35.6,162.8,35.6,154.2,41,148.8
		L41,148.8z M17.7,197.1c0-3.6,1.4-7.1,4-9.7c2.6-2.6,6-4,9.7-4c3.7,0,7.1,1.4,9.7,4l56,56c5.3,5.3,5.3,14,0,19.3
		c-5.2,5.2-14.2,5.2-19.3,0l-55.9-55.9C19.1,204.2,17.7,200.8,17.7,197.1L17.7,197.1z M17.7,197.1"/>
	<path class="st0" d="M304.2,222.7c0,3.8,3.1,6.8,6.8,6.8c3.8,0,6.8-3.1,6.8-6.8c0-49.3-20.6-117.4-32.9-134.8
		c-3.6-5.1-8.1-11.4-8.1-13.4V9.8c0-3.8-3.1-6.8-6.8-6.8c-3.8,0-6.8,3.1-6.8,6.8v64.6c0,6.4,4.4,12.7,10.6,21.3
		C285.9,112.8,304.2,177.7,304.2,222.7L304.2,222.7z M304.2,222.7"/>
	<path class="st0" d="M106.4,372.3c-3.8,0-6.8,3.1-6.8,6.8v46.7c0,3.8,3.1,6.8,6.8,6.8c3.8,0,6.8-3.1,6.8-6.8v-46.7
		C113.2,375.4,110.2,372.3,106.4,372.3L106.4,372.3z M106.4,372.3"/>
	<path class="st0" d="M287.5,191.6c-16.1-10.7-66.5-40-69-41.4c-4.6-2.3-9.6-2-14.3,0.9c-10,6.2-16.1,23.1-16.1,32.5
		c0,13.1,9.2,21.1,18.9,29.5c3.4,2.9,6.9,6,10.4,9.4l34.1,34.1c2.3,2.3,4.4,4.4,4.7,5c0.1,0.4,0.1,1.8,0.1,3.3
		c-1.6,4.3-14.2,18.7-25.1,29.6L156,363.1c-2,2-6.2,4.8-8.8,4.8H85.7c-7.5,0-13.7-6.1-13.7-13.7s6.1-13.7,13.7-13.7h47.8
		c9.4,0,17.6-7.9,18.5-8.8l47.8-47.8c2.7-2.7,2.7-7,0-9.7c-2.7-2.7-7-2.7-9.7,0l-47.8,47.8c-2,2-6.2,4.8-8.8,4.8H65.2
		c-7.5,0-13.7-6.1-13.7-13.7c0-7.5,6.1-13.7,13.7-13.7h54.6c3.8,0,6.8-3.1,6.8-6.8c0-3.8-3.1-6.8-6.8-6.8H44.8
		c-7.5,0-13.7-6.1-13.7-13.7c0-13.4,17-16.9,21.5-19.1c3.4-1.7,2.3-7.1-0.5-9.6c-2.8-2.5-6.6-1.6-9.6,0.5c-5.8,4.1-25,10.8-25,28.2
		c0,14.1,10.7,25.6,24.4,27c-2.5,4.1-4,8.8-4,13.9c0,14.1,10.7,25.6,24.4,27c-2.5,4.1-4,8.8-4,13.9c0,15.1,12.2,27.3,27.3,27.3h61.4
		c9.4,0,17.6-7.9,18.2-8.6l75.3-68.5c29.3-29.3,29.3-36.6,29.3-39c0-9.1-1.1-10.8-8.8-18.5L227.1,213c-3.8-3.8-7.7-7.2-11.1-10.1
		c-9.4-8.1-14.2-12.6-14.2-19.2c0-8.6,7.3-21.2,10.2-21.4c0.5,0.3,52.2,30.3,67.9,40.7c17.7,11.8,37.9,30.3,37.9,69.4
		c0,29.3-23,69-38.3,95.3c-10.9,18.8-16.1,28.1-16.1,34.4v23.7c0,3.8,3.1,6.8,6.8,6.8c3.8,0,6.8-3.1,6.8-6.8v-23.6
		c0.3-3.5,7.7-16.3,14.3-27.6c16.9-29.2,40.1-69.2,40.1-102.2C331.5,226.3,306.4,204.2,287.5,191.6L287.5,191.6z M287.5,191.6"/>
</g>
</svg>
